<svg xmlns="http://www.w3.org/2000/svg" xmlns:xlink="http://www.w3.org/1999/xlink" viewBox="0,0,256,256" width="256px" height="256px" fill-rule="nonzero"><g fill="#808080" fill-rule="nonzero" stroke="none" stroke-width="1" stroke-linecap="butt" stroke-linejoin="miter" stroke-miterlimit="10" stroke-dasharray="" stroke-dashoffset="0" font-family="none" font-weight="none" font-size="none" text-anchor="none" style="mix-blend-mode: normal"><g transform="scale(8,8)"><path d="M16,3c-7.16786,0 -13,5.83214 -13,13c0,7.16786 5.83214,13 13,13c7.16786,0 13,-5.83214 13,-13c0,-7.16786 -5.83214,-13 -13,-13zM16,5c6.08698,0 11,4.91302 11,11c0,6.08698 -4.91302,11 -11,11c-6.08698,0 -11,-4.91302 -11,-11c0,-6.08698 4.91302,-11 11,-11zM20.84766,9.94727c-2.4412,-0.03315 -4.98614,0.64662 -7.23242,1.66016c-2.56718,1.15832 -4.74577,2.72134 -5.90625,4.4668c-0.24426,0.36744 -0.21886,0.85154 0.0625,1.19141c0.74746,0.90092 1.8011,1.40065 2.93945,1.56055c0.91336,0.12829 1.96903,-0.01151 3.06055,-0.16016c0.52278,1.1885 1.28704,2.20626 2.20313,2.90625c1.1148,0.85183 2.32012,1.36472 3.48242,1.33789c0.23318,-0.00573 0.45703,-0.09278 0.63281,-0.24609c0.68346,-0.5964 1.12288,-1.43426 1.51758,-2.41797c0.3947,-0.98371 0.71221,-2.11966 0.94727,-3.2793c0.47011,-2.31927 0.67701,-4.63797 0.18945,-6.25586c-0.11716,-0.38663 -0.45544,-0.66481 -0.85742,-0.70508c-0.34332,-0.03496 -0.69032,-0.05386 -1.03906,-0.05859zM20.87695,12.04883c0.11478,1.07216 0.07156,2.7713 -0.2832,4.52148c-0.21544,1.06287 -0.5102,2.0984 -0.84375,2.92969c-0.25095,0.62543 -0.50288,0.94835 -0.73242,1.24805c-0.49495,-0.0836 -1.14485,-0.24353 -1.82812,-0.76562c-0.68473,-0.52321 -1.24148,-1.26948 -1.60937,-2.10352l1.85352,-1.70898c0.26757,-0.24094 0.38497,-0.6071 0.30739,-0.95871c-0.07759,-0.3516 -0.33819,-0.63436 -0.68231,-0.74031c-0.34412,-0.10595 -0.71863,-0.01875 -0.98055,0.22832l-2.13867,1.9707c-1.1957,0.18386 -2.22864,0.27727 -2.95117,0.17578c-0.39301,-0.0552 -0.56933,-0.29266 -0.83789,-0.42969c0.98042,-1.03534 2.42925,-2.14717 4.28906,-2.98633c2.05742,-0.92832 4.36786,-1.41934 6.4375,-1.38086z"></path></g></g></svg>